<?xml version="1.0" encoding="utf-8"?>
<!-- Generator: Adobe Illustrator 26.0.0, SVG Export Plug-In . SVG Version: 6.00 Build 0)  -->
<svg version="1.1" id="Layer_1" xmlns="http://www.w3.org/2000/svg" xmlns:xlink="http://www.w3.org/1999/xlink" x="0px" y="0px"
	 viewBox="0 0 162.9 38.7" style="enable-background:new 0 0 162.9 38.7;" xml:space="preserve">
<style type="text/css">
	.st0{fill:#01A3E7;}
	.st1{fill:#FFFFFF;}
	.st2{fill:#0370B8;}
</style>
<g>
	<g>
		<path class="st0" d="M47.7,6.4h3.8l6.1,7.9V6.4h4.1v14.9h-3.6l-6.4-8.2v8.2h-4.1V6.4z"/>
		<path class="st0" d="M64.4,6.4h12v3.5h-7.9v2.3h7.1v3.2h-7.1v2.4h8v3.5H64.4V6.4z"/>
		<path class="st0" d="M78.5,6.4h5.7c5.3,0,8.4,3.1,8.4,7.3v0c0,4.3-3.1,7.5-8.5,7.5h-5.7V6.4z M84.3,17.7c2.5,0,4.1-1.4,4.1-3.8v0
			c0-2.4-1.6-3.8-4.1-3.8h-1.7v7.6H84.3z"/>
		<path class="st0" d="M94.9,6.4H99v14.9h-4.1V6.4z"/>
		<path class="st0" d="M106,15.7l-5.6-9.3h4.7l3.1,5.4l3.1-5.4h4.6l-5.7,9.2v5.6H106V15.7z"/>
		<path class="st0" d="M119.9,6.3h4l6.3,15h-4.4l-1.1-2.7H119l-1.1,2.7h-4.3L119.9,6.3z M123.5,15.4l-1.7-4.2l-1.7,4.2H123.5z"/>
		<path class="st0" d="M133.4,10h-4.5V6.4h13V10h-4.5v11.3h-4.1V10z"/>
		<path class="st0" d="M143.7,6.4h4.1V12h5.3V6.4h4.1v14.9h-4.1v-5.6h-5.3v5.6h-4.1V6.4z"/>
	</g>
</g>
<g>
	<g>
		<path class="st0" d="M47.1,32.7c-0.1-0.1-0.1-0.2-0.1-0.3c0-0.2,0.2-0.4,0.4-0.4c0.1,0,0.2,0,0.2,0.1c0.6,0.5,1.2,0.8,2.1,0.8
			c0.9,0,1.5-0.5,1.5-1.1v0c0-0.6-0.3-1-1.7-1.2c-1.5-0.3-2.2-0.8-2.2-1.9v0c0-1,0.9-1.8,2.1-1.8c0.9,0,1.5,0.2,2.1,0.6
			c0.1,0.1,0.2,0.2,0.2,0.3c0,0.2-0.2,0.4-0.4,0.4c-0.1,0-0.1,0-0.2-0.1c-0.6-0.4-1.1-0.6-1.7-0.6c-0.8,0-1.4,0.5-1.4,1.1v0
			c0,0.6,0.3,1,1.8,1.3c1.5,0.3,2.1,0.8,2.1,1.8v0c0,1.1-0.9,1.8-2.2,1.8C48.6,33.6,47.8,33.3,47.1,32.7z"/>
		<path class="st0" d="M54.6,33l2.6-5.8c0.1-0.2,0.2-0.3,0.5-0.3h0c0.2,0,0.4,0.1,0.5,0.3l2.6,5.8c0,0.1,0,0.1,0,0.2
			c0,0.2-0.2,0.4-0.4,0.4c-0.2,0-0.3-0.1-0.4-0.3l-0.7-1.5H56l-0.7,1.5c-0.1,0.2-0.2,0.3-0.4,0.3c-0.2,0-0.3-0.1-0.3-0.3
			C54.6,33.2,54.6,33.1,54.6,33z M59.2,31.1l-1.5-3.3l-1.5,3.3H59.2z"/>
		<path class="st0" d="M64.2,27.3c0-0.2,0.2-0.4,0.4-0.4h0.1c0.2,0,0.3,0.1,0.4,0.2l4,5.1v-4.9c0-0.2,0.2-0.4,0.4-0.4
			c0.2,0,0.4,0.2,0.4,0.4v5.9c0,0.2-0.1,0.3-0.3,0.3h0c-0.2,0-0.3-0.1-0.4-0.2l-4-5.2v5.1c0,0.2-0.2,0.4-0.4,0.4
			c-0.2,0-0.4-0.2-0.4-0.4V27.3z"/>
		<path class="st0" d="M73.5,27.3c0-0.2,0.2-0.4,0.4-0.4c0.2,0,0.4,0.2,0.4,0.4v5.9c0,0.2-0.2,0.4-0.4,0.4c-0.2,0-0.4-0.2-0.4-0.4
			V27.3z"/>
		<path class="st0" d="M79.7,27.7h-1.9c-0.2,0-0.3-0.1-0.3-0.3s0.2-0.3,0.3-0.3h4.5c0.2,0,0.3,0.2,0.3,0.3s-0.2,0.3-0.3,0.3h-1.9
			v5.5c0,0.2-0.2,0.4-0.4,0.4s-0.4-0.2-0.4-0.4V27.7z"/>
		<path class="st0" d="M84.7,33l2.6-5.8c0.1-0.2,0.2-0.3,0.5-0.3h0c0.2,0,0.4,0.1,0.5,0.3L91,33c0,0.1,0,0.1,0,0.2
			c0,0.2-0.2,0.4-0.4,0.4c-0.2,0-0.3-0.1-0.4-0.3l-0.7-1.5H86l-0.7,1.5c-0.1,0.2-0.2,0.3-0.4,0.3c-0.2,0-0.3-0.1-0.3-0.3
			C84.7,33.2,84.7,33.1,84.7,33z M89.3,31.1l-1.5-3.3l-1.5,3.3H89.3z"/>
		<path class="st0" d="M94.3,27.4c0-0.2,0.2-0.4,0.4-0.4h2.4c0.8,0,1.4,0.2,1.9,0.7c0.3,0.3,0.5,0.8,0.5,1.3v0
			c0,1.1-0.7,1.7-1.7,1.9l1.6,2.1c0.1,0.1,0.1,0.2,0.1,0.3c0,0.2-0.2,0.4-0.4,0.4c-0.1,0-0.3-0.1-0.3-0.2L96.9,31H95v2.2
			c0,0.2-0.2,0.4-0.4,0.4c-0.2,0-0.4-0.2-0.4-0.4V27.4z M97,30.3c1,0,1.7-0.5,1.7-1.3v0c0-0.8-0.6-1.3-1.7-1.3h-2v2.6H97z"/>
		<path class="st0" d="M104.7,31l-2.4-3.4c0-0.1-0.1-0.2-0.1-0.3c0-0.2,0.2-0.4,0.4-0.4c0.2,0,0.3,0.1,0.4,0.2l2.2,3.1l2.2-3.1
			c0.1-0.1,0.2-0.2,0.3-0.2c0.2,0,0.4,0.2,0.4,0.4c0,0.1-0.1,0.2-0.1,0.3l-2.4,3.4v2.3c0,0.2-0.2,0.4-0.4,0.4s-0.4-0.2-0.4-0.4V31z"
			/>
		<path class="st0" d="M115.4,27.5c0-0.1,0-0.1,0-0.2c0-0.2,0.2-0.4,0.4-0.4c0.2,0,0.3,0.1,0.4,0.3l1.8,5.2l1.7-5.2
			c0.1-0.2,0.2-0.3,0.4-0.3h0c0.2,0,0.3,0.1,0.4,0.3l1.7,5.2l1.8-5.2c0.1-0.2,0.2-0.3,0.4-0.3c0.2,0,0.4,0.2,0.4,0.4
			c0,0.1,0,0.1,0,0.2l-2.1,5.8c-0.1,0.2-0.2,0.3-0.4,0.3h-0.1c-0.2,0-0.3-0.1-0.4-0.3l-1.7-5l-1.7,5c-0.1,0.2-0.2,0.3-0.4,0.3h-0.1
			c-0.2,0-0.3-0.1-0.4-0.3L115.4,27.5z"/>
		<path class="st0" d="M126.7,33l2.6-5.8c0.1-0.2,0.2-0.3,0.5-0.3h0c0.2,0,0.4,0.1,0.5,0.3L133,33c0,0.1,0,0.1,0,0.2
			c0,0.2-0.2,0.4-0.4,0.4c-0.2,0-0.3-0.1-0.4-0.3l-0.7-1.5h-3.6l-0.7,1.5c-0.1,0.2-0.2,0.3-0.4,0.3c-0.2,0-0.3-0.1-0.3-0.3
			C126.7,33.2,126.7,33.1,126.7,33z M131.4,31.1l-1.5-3.3l-1.5,3.3H131.4z"/>
		<path class="st0" d="M136.3,27.4c0-0.2,0.2-0.4,0.4-0.4h2.4c0.8,0,1.4,0.2,1.9,0.7c0.3,0.3,0.5,0.8,0.5,1.3v0
			c0,1.1-0.7,1.7-1.7,1.9l1.6,2.1c0.1,0.1,0.1,0.2,0.1,0.3c0,0.2-0.2,0.4-0.4,0.4c-0.1,0-0.3-0.1-0.3-0.2l-1.8-2.4h-1.9v2.2
			c0,0.2-0.2,0.4-0.4,0.4c-0.2,0-0.4-0.2-0.4-0.4V27.4z M139.1,30.3c1,0,1.7-0.5,1.7-1.3v0c0-0.8-0.6-1.3-1.7-1.3h-2v2.6H139.1z"/>
		<path class="st0" d="M144.9,33.1v-5.8c0-0.2,0.2-0.4,0.4-0.4h4.1c0.2,0,0.3,0.1,0.3,0.3s-0.1,0.3-0.3,0.3h-3.7v2.2h3.3
			c0.2,0,0.3,0.2,0.3,0.3c0,0.2-0.1,0.3-0.3,0.3h-3.3v2.3h3.7c0.2,0,0.3,0.1,0.3,0.3s-0.1,0.3-0.3,0.3h-4.1
			C145.1,33.5,144.9,33.4,144.9,33.1z"/>
		<path class="st0" d="M152.8,32.7c-0.1-0.1-0.1-0.2-0.1-0.3c0-0.2,0.2-0.4,0.4-0.4c0.1,0,0.2,0,0.2,0.1c0.6,0.5,1.2,0.8,2.1,0.8
			c0.9,0,1.5-0.5,1.5-1.1v0c0-0.6-0.3-1-1.7-1.2c-1.5-0.3-2.2-0.8-2.2-1.9v0c0-1,0.9-1.8,2.1-1.8c0.9,0,1.5,0.2,2.1,0.6
			c0.1,0.1,0.2,0.2,0.2,0.3c0,0.2-0.2,0.4-0.4,0.4c-0.1,0-0.1,0-0.2-0.1c-0.5-0.4-1.1-0.6-1.7-0.6c-0.8,0-1.4,0.5-1.4,1.1v0
			c0,0.6,0.3,1,1.8,1.3c1.5,0.3,2.1,0.8,2.1,1.8v0c0,1.1-0.9,1.8-2.2,1.8C154.3,33.6,153.5,33.3,152.8,32.7z"/>
	</g>
</g>
<g>
	<path class="st1" d="M32.3,0l-9.1,19.9L19.7,8.6l2.1-2.1H19h-2.1h-1.2c-1.9,0-3.7,1.1-4.5,2.9L0,34.2v4.5h4.8L14.2,18L18,29.7
		l-2.1,2.1h2.8l0,0h2.9c1.9,0,3.7-1.1,4.5-2.9v0L38.7,1.1V0H32.3z"/>
	<g>
		<path class="st2" d="M32.3,0l-9.1,19.9L19.7,8.7l2.1-2.1h-6c-1.9,0-3.7,1.1-4.5,2.9L0,34.2V11.8C0,5.3,5.3,0,11.8,0H32.3z"/>
	</g>
	<g>
		<path class="st0" d="M38.7,1.1v25.8c0,6.5-5.3,11.8-11.8,11.8H4.8L14.2,18L18,29.7l-2.1,2.1h2.8l0,0h2.9c0.4,0,0.7,0,1.1-0.1
			c0.1,0,0.2-0.1,0.3-0.1c0.6-0.2,1.1-0.4,1.5-0.8c0.2-0.1,0.4-0.3,0.5-0.5c0.2-0.2,0.4-0.4,0.6-0.7c0,0,0.1-0.1,0.1-0.1
			c0.1-0.2,0.2-0.4,0.3-0.6l0,0L38.7,1.1z"/>
	</g>
</g>
</svg>
